<svg width="256" height="40" fill="none" xmlns="http://www.w3.org/2000/svg"><path d="M26.036 0v31.44h-6.62v-2.626c-1.718 1.977-4.206 2.966-7.464 2.966-2.251 0-4.295-.48-6.132-1.441a10.614 10.614 0 0 1-4.265-4.11C.518 24.449 0 22.387 0 20.042c0-2.344.518-4.406 1.555-6.186a10.614 10.614 0 0 1 4.265-4.11c1.837-.96 3.88-1.44 6.132-1.44 3.05 0 5.435.917 7.153 2.753V0h6.931ZM13.151 26.356c1.748 0 3.2-.565 4.355-1.695 1.155-1.158 1.732-2.698 1.732-4.619 0-1.92-.577-3.446-1.732-4.576-1.156-1.158-2.607-1.737-4.355-1.737-1.777 0-3.243.579-4.398 1.737-1.155 1.13-1.733 2.656-1.733 4.576 0 1.921.578 3.46 1.733 4.619 1.155 1.13 2.621 1.695 4.398 1.695ZM28.897 8.644h6.931v22.797h-6.931V8.644Zm3.465-1.271c-1.273 0-2.31-.353-3.11-1.06-.8-.706-1.2-1.581-1.2-2.627 0-1.045.4-1.92 1.2-2.627C30.052.353 31.09 0 32.362 0c1.274 0 2.31.339 3.11 1.017.8.678 1.2 1.525 1.2 2.542 0 1.102-.4 2.02-1.2 2.755-.8.706-1.836 1.059-3.11 1.059ZM63.365 8.644v18.983c0 4.18-1.14 7.288-3.421 9.322C57.664 38.983 54.331 40 49.947 40c-2.31 0-4.502-.268-6.576-.805-2.073-.537-3.791-1.314-5.154-2.33l2.755-4.746c1.007.79 2.281 1.412 3.821 1.864 1.54.48 3.08.72 4.621.72 2.4 0 4.162-.522 5.287-1.567 1.155-1.017 1.733-2.571 1.733-4.661V27.5c-1.807 1.893-4.325 2.839-7.553 2.839-2.192 0-4.206-.452-6.043-1.356-1.807-.932-3.243-2.232-4.31-3.898-1.066-1.667-1.599-3.588-1.599-5.763s.533-4.096 1.6-5.763c1.066-1.666 2.502-2.952 4.31-3.856 1.836-.932 3.85-1.398 6.042-1.398 3.465 0 6.102 1.088 7.908 3.263V8.644h6.576ZM50.258 24.915c1.837 0 3.332-.508 4.488-1.525 1.184-1.045 1.777-2.401 1.777-4.068 0-1.667-.593-3.008-1.777-4.025-1.156-1.046-2.651-1.568-4.488-1.568-1.836 0-3.347.522-4.532 1.568-1.185 1.017-1.777 2.358-1.777 4.025 0 1.667.592 3.023 1.777 4.068 1.185 1.017 2.696 1.525 4.532 1.525ZM75.903 8.305c3.703 0 6.546.848 8.53 2.543 1.985 1.666 2.978 4.194 2.978 7.584v13.009h-6.487V28.6c-1.303 2.12-3.732 3.179-7.287 3.179-1.836 0-3.436-.297-4.798-.89-1.333-.593-2.355-1.413-3.066-2.458-.71-1.045-1.066-2.231-1.066-3.56 0-2.118.83-3.784 2.488-5 1.688-1.214 4.28-1.821 7.775-1.821h5.51c0-1.44-.46-2.542-1.378-3.305-.918-.791-2.295-1.187-4.132-1.187a12.4 12.4 0 0 0-3.776.594c-1.215.367-2.252.875-3.11 1.525l-2.489-4.619c1.304-.875 2.859-1.553 4.666-2.034 1.836-.48 3.717-.72 5.642-.72Zm-.533 19.026c1.185 0 2.236-.255 3.155-.763.918-.537 1.57-1.314 1.955-2.33v-2.331h-4.755c-2.843 0-4.265.89-4.265 2.67 0 .847.34 1.525 1.022 2.033.711.48 1.674.72 2.888.72ZM101.942 31.78c-2.548 0-4.843-.495-6.887-1.483-2.014-1.017-3.599-2.416-4.754-4.195-1.126-1.78-1.689-3.8-1.689-6.06s.563-4.28 1.689-6.059c1.155-1.78 2.74-3.164 4.754-4.152 2.044-1.017 4.34-1.526 6.887-1.526 2.517 0 4.709.509 6.575 1.526 1.896.988 3.273 2.415 4.132 4.28l-5.376 2.753c-1.244-2.09-3.036-3.135-5.376-3.135-1.807 0-3.303.565-4.487 1.695-1.185 1.13-1.778 2.67-1.778 4.618 0 1.95.593 3.49 1.778 4.619 1.184 1.13 2.68 1.695 4.487 1.695 2.37 0 4.162-1.045 5.376-3.136l5.376 2.797c-.859 1.808-2.236 3.22-4.132 4.237-1.866 1.017-4.058 1.526-6.575 1.526ZM127.441 8.305c2.962 0 5.346.848 7.153 2.543 1.837 1.694 2.755 4.208 2.755 7.542v13.05h-6.931V19.408c0-1.808-.415-3.15-1.244-4.026-.83-.904-2.029-1.356-3.599-1.356-1.748 0-3.14.523-4.177 1.568-1.036 1.017-1.555 2.543-1.555 4.576v11.272h-6.931V0h6.931v11.017c.918-.876 2.029-1.54 3.333-1.992 1.303-.48 2.725-.72 4.265-.72ZM149.719 8.305c3.702 0 6.546.848 8.53 2.543 1.985 1.666 2.977 4.194 2.977 7.584v13.009h-6.487V28.6c-1.303 2.12-3.732 3.179-7.286 3.179-1.837 0-3.436-.297-4.799-.89-1.333-.593-2.355-1.413-3.066-2.458-.71-1.045-1.066-2.231-1.066-3.56 0-2.118.829-3.784 2.488-5 1.689-1.214 4.28-1.821 7.776-1.821h5.509c0-1.44-.459-2.542-1.377-3.305-.919-.791-2.296-1.187-4.132-1.187a12.4 12.4 0 0 0-3.777.594c-1.214.367-2.251.875-3.11 1.525l-2.488-4.619c1.303-.875 2.858-1.553 4.665-2.034 1.836-.48 3.717-.72 5.643-.72Zm-.534 19.026c1.185 0 2.237-.255 3.155-.763.918-.537 1.57-1.314 1.955-2.33v-2.331h-4.754c-2.844 0-4.265.89-4.265 2.67 0 .847.34 1.525 1.021 2.033.711.48 1.674.72 2.888.72ZM178.473 8.305c2.962 0 5.347.848 7.154 2.543 1.836 1.694 2.754 4.208 2.754 7.542v13.05h-6.931V19.408c0-1.808-.414-3.15-1.244-4.026-.829-.904-2.029-1.356-3.599-1.356-1.747 0-3.139.523-4.176 1.568-1.037 1.017-1.555 2.543-1.555 4.576v11.272h-6.931V8.644h6.62v2.67c.918-.96 2.058-1.695 3.421-2.204 1.362-.537 2.858-.805 4.487-.805ZM215.718 0v31.44h-6.62v-2.626c-1.718 1.977-4.206 2.966-7.465 2.966-2.251 0-4.294-.48-6.131-1.441a10.607 10.607 0 0 1-4.265-4.11c-1.037-1.78-1.555-3.842-1.555-6.187 0-2.344.518-4.406 1.555-6.186a10.607 10.607 0 0 1 4.265-4.11c1.837-.96 3.88-1.44 6.131-1.44 3.051 0 5.436.917 7.154 2.753V0h6.931Zm-12.885 26.356c1.748 0 3.199-.565 4.354-1.695 1.156-1.158 1.733-2.698 1.733-4.619 0-1.92-.577-3.446-1.733-4.576-1.155-1.158-2.606-1.737-4.354-1.737-1.777 0-3.243.579-4.398 1.737-1.156 1.13-1.733 2.656-1.733 4.576 0 1.921.577 3.46 1.733 4.619 1.155 1.13 2.621 1.695 4.398 1.695ZM225.199 11.652c.829-1.101 1.94-1.934 3.332-2.5 1.422-.564 3.051-.847 4.887-.847v6.102a26.207 26.207 0 0 0-1.555-.085c-1.984 0-3.539.537-4.665 1.61-1.126 1.045-1.688 2.627-1.688 4.746v10.763h-6.931V8.644h6.62v3.008ZM244.493 8.305c3.702 0 6.546.848 8.53 2.543 1.985 1.666 2.977 4.194 2.977 7.584v13.009h-6.487V28.6c-1.303 2.12-3.732 3.179-7.286 3.179-1.837 0-3.436-.297-4.799-.89-1.333-.593-2.355-1.413-3.066-2.458-.711-1.045-1.066-2.231-1.066-3.56 0-2.118.829-3.784 2.488-5 1.688-1.214 4.28-1.821 7.775-1.821h5.51c0-1.44-.459-2.542-1.377-3.305-.919-.791-2.296-1.187-4.133-1.187a12.4 12.4 0 0 0-3.776.594c-1.215.367-2.251.875-3.11 1.525l-2.488-4.619c1.303-.875 2.858-1.553 4.665-2.034 1.836-.48 3.717-.72 5.643-.72Zm-.534 19.026c1.185 0 2.237-.255 3.155-.763.918-.537 1.57-1.314 1.955-2.33v-2.331h-4.754c-2.844 0-4.266.89-4.266 2.67 0 .847.341 1.525 1.022 2.033.711.48 1.674.72 2.888.72Z" fill="#000"/></svg>